<svg width="16" height="16" viewBox="0 0 16 16" fill="none" xmlns="http://www.w3.org/2000/svg">
<g clip-path="url(#clip0_446_29376)">
<path fill-rule="evenodd" clip-rule="evenodd" d="M7.99984 1.20642C6.65623 1.20643 5.34279 1.60486 4.22561 2.35133C3.10843 3.0978 2.23768 4.15878 1.72348 5.40011C1.20928 6.64144 1.07471 8.00736 1.3368 9.32517C1.59888 10.643 2.24584 11.8535 3.19588 12.8036C4.14592 13.7537 5.35635 14.4008 6.67414 14.663C7.99192 14.9252 9.35786 14.7908 10.5992 14.2767C11.8406 13.7626 12.9017 12.8919 13.6482 11.7748C14.3948 10.6577 14.7934 9.34432 14.7935 8.00071C14.7915 6.19946 14.0752 4.47255 12.8015 3.19882C11.5279 1.92509 9.80109 1.20856 7.99984 1.20642ZM7.99984 13.0958C6.99207 13.0957 6.00694 12.7968 5.16905 12.2368C4.33115 11.6769 3.67811 10.8811 3.29251 9.94996C2.90692 9.01887 2.80608 7.99435 3.00276 7.00595C3.19943 6.01755 3.68478 5.10967 4.39743 4.39712C5.11009 3.68456 6.01804 3.19933 7.00646 3.00279C7.99488 2.80625 9.01939 2.90723 9.95043 3.29295C10.8815 3.67868 11.6772 4.33182 12.237 5.16979C12.7969 6.00777 13.0957 6.99293 13.0956 8.00071C13.0956 8.66985 12.9637 9.33244 12.7076 9.95063C12.4515 10.5688 12.0762 11.1305 11.603 11.6037C11.1298 12.0768 10.5681 12.4521 9.94982 12.7081C9.33159 12.9641 8.66899 13.0958 7.99984 13.0957V13.0958ZM7.99984 4.60357C7.83197 4.6037 7.6679 4.6536 7.52838 4.74696C7.38886 4.84032 7.28015 4.97296 7.216 5.12809C7.15185 5.28322 7.13513 5.4539 7.16796 5.61853C7.20079 5.78316 7.2817 5.93437 7.40045 6.05303C7.5192 6.17169 7.67046 6.25248 7.83512 6.28518C7.99978 6.31789 8.17044 6.30104 8.32552 6.23677C8.48061 6.1725 8.61316 6.06369 8.70641 5.9241C8.79967 5.78451 8.84944 5.6204 8.84945 5.45253C8.84943 5.34099 8.82744 5.23055 8.78473 5.12751C8.74202 5.02448 8.67943 4.93087 8.60053 4.85203C8.52163 4.77319 8.42797 4.71067 8.3249 4.66803C8.22184 4.6254 8.11138 4.60349 7.99984 4.60355V4.60357ZM8.08973 8.00071H7.91065C7.81091 8.00064 7.71214 8.02022 7.61998 8.05833C7.52782 8.09644 7.44406 8.15234 7.37351 8.22284C7.30296 8.29333 7.24699 8.37703 7.20879 8.46916C7.1706 8.56129 7.15094 8.66005 7.15092 8.75978V10.6375C7.15093 10.839 7.23098 11.0322 7.37345 11.1747C7.51593 11.3171 7.70916 11.3972 7.91065 11.3972H8.08973C8.29118 11.3971 8.48436 11.317 8.62681 11.1745C8.76926 11.0321 8.84934 10.8389 8.84945 10.6375V8.75977C8.84931 8.55838 8.76921 8.36529 8.62674 8.22295C8.48428 8.08061 8.29112 8.00067 8.08973 8.00071Z" fill="#757575"/>
</g>
<defs>
<clipPath id="clip0_446_29376">
<rect width="16" height="16" fill="white"/>
</clipPath>
</defs>
</svg>
