<svg width="14" height="14" viewBox="0 0 14 14" fill="none" xmlns="http://www.w3.org/2000/svg">
<path fill-rule="evenodd" clip-rule="evenodd" d="M13.51 10.6459L10.9761 8.09837C10.8978 8.0196 10.8047 7.95708 10.7021 7.9144C10.5996 7.87173 10.4896 7.84974 10.3785 7.84971H9.69289C10.2454 6.88343 10.4638 5.7619 10.3143 4.6589C10.1647 3.5559 9.65549 2.53302 8.86558 1.74879C8.07567 0.964559 7.04915 0.462755 5.9451 0.321142C4.84105 0.17953 3.72112 0.406018 2.75886 0.965506C1.79659 1.52499 1.04573 2.38624 0.622626 3.41579C0.199521 4.44533 0.127801 5.58568 0.41858 6.66013C0.709359 7.73457 1.3464 8.68311 2.23098 9.35875C3.11557 10.0344 4.1983 10.3994 5.31139 10.3972C6.20228 10.3966 7.07692 10.1586 7.84528 9.70775V10.3972C7.84503 10.6222 7.934 10.8381 8.09268 10.9975L10.6265 13.545C10.7047 13.6238 10.7977 13.6864 10.9002 13.729C11.0026 13.7717 11.1125 13.7937 11.2235 13.7937C11.3345 13.7937 11.4444 13.7717 11.5469 13.729C11.6494 13.6864 11.7424 13.6238 11.8205 13.545L13.51 11.8464C13.6682 11.6867 13.7571 11.471 13.7571 11.2462C13.7571 11.0213 13.6683 10.8056 13.51 10.6459ZM5.31139 8.69863C4.63876 8.70231 3.98018 8.50621 3.41913 8.13518C2.85807 7.76416 2.4198 7.23491 2.15986 6.61453C1.89992 5.99414 1.83002 5.31055 1.95901 4.6504C2.08801 3.99024 2.41009 3.38324 2.88444 2.90634C3.35879 2.42944 3.96405 2.1041 4.6235 1.97156C5.28295 1.83902 5.96691 1.90525 6.58868 2.16185C7.21045 2.41846 7.74204 2.85388 8.11608 3.41294C8.49011 3.97199 8.68975 4.62951 8.68968 5.30215C8.69194 6.20049 8.33732 7.06295 7.7038 7.69988C7.07028 8.33681 6.20973 8.69606 5.31139 8.69863ZM11.2235 11.7436L9.53412 10.0456V9.54764H10.0289L11.7183 11.2462L11.2235 11.7436Z" fill="#9E9E9E"/>
</svg>
