<svg width="16" height="16" viewBox="0 0 16 16" fill="none" xmlns="http://www.w3.org/2000/svg">
<path d="M6.66659 4.00004H9.33325C9.33325 3.64642 9.19278 3.30728 8.94273 3.05723C8.69268 2.80718 8.35354 2.66671 7.99992 2.66671C7.6463 2.66671 7.30716 2.80718 7.05711 3.05723C6.80706 3.30728 6.66659 3.64642 6.66659 4.00004ZM5.33325 4.00004C5.33325 3.2928 5.6142 2.61452 6.1143 2.11442C6.6144 1.61433 7.29268 1.33337 7.99992 1.33337C8.70716 1.33337 9.38544 1.61433 9.88554 2.11442C10.3856 2.61452 10.6666 3.2928 10.6666 4.00004H13.9999C14.1767 4.00004 14.3463 4.07028 14.4713 4.1953C14.5963 4.32033 14.6666 4.4899 14.6666 4.66671C14.6666 4.84352 14.5963 5.01309 14.4713 5.13811C14.3463 5.26314 14.1767 5.33337 13.9999 5.33337H13.4119L12.8213 12.2267C12.7645 12.8924 12.4599 13.5124 11.9678 13.9643C11.4757 14.4161 10.832 14.6668 10.1639 14.6667H5.83592C5.16786 14.6668 4.5241 14.4161 4.03202 13.9643C3.53993 13.5124 3.23537 12.8924 3.17859 12.2267L2.58792 5.33337H1.99992C1.82311 5.33337 1.65354 5.26314 1.52851 5.13811C1.40349 5.01309 1.33325 4.84352 1.33325 4.66671C1.33325 4.4899 1.40349 4.32033 1.52851 4.1953C1.65354 4.07028 1.82311 4.00004 1.99992 4.00004H5.33325ZM9.99992 8.00004C9.99992 7.82323 9.92968 7.65366 9.80466 7.52864C9.67963 7.40361 9.51006 7.33337 9.33325 7.33337C9.15644 7.33337 8.98687 7.40361 8.86185 7.52864C8.73682 7.65366 8.66659 7.82323 8.66659 8.00004V10.6667C8.66659 10.8435 8.73682 11.0131 8.86185 11.1381C8.98687 11.2631 9.15644 11.3334 9.33325 11.3334C9.51006 11.3334 9.67963 11.2631 9.80466 11.1381C9.92968 11.0131 9.99992 10.8435 9.99992 10.6667V8.00004ZM6.66659 7.33337C6.8434 7.33337 7.01297 7.40361 7.13799 7.52864C7.26301 7.65366 7.33325 7.82323 7.33325 8.00004V10.6667C7.33325 10.8435 7.26301 11.0131 7.13799 11.1381C7.01297 11.2631 6.8434 11.3334 6.66659 11.3334C6.48977 11.3334 6.32021 11.2631 6.19518 11.1381C6.07016 11.0131 5.99992 10.8435 5.99992 10.6667V8.00004C5.99992 7.82323 6.07016 7.65366 6.19518 7.52864C6.32021 7.40361 6.48977 7.33337 6.66659 7.33337ZM4.50659 12.1134C4.53499 12.4463 4.68736 12.7564 4.93355 12.9824C5.17973 13.2083 5.50177 13.3336 5.83592 13.3334H10.1639C10.4978 13.3332 10.8195 13.2078 11.0654 12.9819C11.3113 12.756 11.4635 12.4461 11.4919 12.1134L12.0733 5.33337H3.92659L4.50792 12.1134H4.50659Z" fill="#DE1B1B"/>
</svg>
